<?xml version="1.0" encoding="UTF-8"?>
<svg xmlns="http://www.w3.org/2000/svg" width="1024" height="1024" viewBox="0 0 1024 1024" role="img" aria-label="SSHBridge">
  <rect width="1024" height="1024" rx="192" fill="#111211"/>
  <rect x="222" y="202" width="580" height="108" rx="24" fill="#f7f1df"/>
  <rect x="222" y="356" width="580" height="108" rx="24" fill="#f7f1df"/>
  <path d="M222 548h580v86H648c-44-40-86-60-136-60s-92 20-136 60H222z" fill="#f7f1df"/>
  <path d="M210 818h150c28-134 75-202 152-202s124 68 152 202h76c-29-176-105-264-228-264s-199 88-228 264z" fill="#f7f1df"/>
  <circle cx="730" cy="256" r="24" fill="#111211"/>
  <circle cx="730" cy="410" r="24" fill="#111211"/>
  <circle cx="730" cy="602" r="28" fill="#26c85a"/>
  <path d="M512 674v172" stroke="#26c85a" stroke-width="22" stroke-linecap="round" stroke-dasharray="28 30"/>
  <circle cx="820" cy="772" r="98" fill="#111211" stroke="#26c85a" stroke-width="20"/>
  <path d="M746 772h40l20-30 28 90 36-132 26 72h38" fill="none" stroke="#26c85a" stroke-width="20" stroke-linecap="round" stroke-linejoin="round"/>
</svg>
